<?xml version="1.0" encoding="utf-8"?>
<!-- Generator: Adobe Illustrator 24.2.1, SVG Export Plug-In . SVG Version: 6.00 Build 0)  -->
<svg version="1.1" id="圖層_1" xmlns="http://www.w3.org/2000/svg" xmlns:xlink="http://www.w3.org/1999/xlink" x="0px" y="0px"
	 viewBox="0 0 150 70" style="enable-background:new 0 0 150 70;" xml:space="preserve">
<style type="text/css">
	.st0{fill:#DB5009;}
	.st1{fill:#676869;stroke:#676869;stroke-width:2;stroke-miterlimit:10;}
	.st2{fill:#DB5009;stroke:#DB5009;stroke-width:2;stroke-miterlimit:10;}
	.st3{fill:#595757;}
	.st4{fill:#676869;}
</style>
<g>
	<polygon class="st0" points="61.8,4.7 68.2,22.1 62.7,24.5 55.3,7.7 	"/>
	<path class="st1" d="M58.3,32.3c-0.3,0-0.6-0.1-0.8-0.4l-5.4-6.4l-5.3-6.4c-0.3-0.4-0.3-1,0.1-1.4c0.4-0.3,1-0.3,1.4,0.1l5.3,6.4
		l5.4,6.4c0.4,0.4,0.3,1-0.1,1.4C58.8,32.2,58.6,32.3,58.3,32.3z"/>
	<path class="st1" d="M84.3,68C84.2,68,84.2,68,84.3,68c-0.6,0-1-0.5-1-1l0.3-5.8c0-0.3,0.2-0.6,0.5-0.8c0.3-0.2,0.6-0.2,0.9-0.1
		l6.5,2.8c1.9,0.7,3.4,0.6,4.5-0.1c2-1.3,2.1-4.5,2.1-4.6c0,0,0,0,0,0l1.2-14.3c0-0.3,0.2-0.5,0.4-0.7l3.6-2.8l-3.4-8.9
		C99,29.8,99,29.8,99,29.6c0,0,0,0,0,0c0-1,0.1-1.7,0.1-2.3c0.1-1.7,0.1-1.9-0.2-3.9c-0.9-6.2-3.6-11.1-7.7-14.2
		C86.3,5.6,79.1,3.7,71.3,4c-2.7,0.1-5.4,0.6-7.9,1.4c-2.6,0.8-5,2-7.1,3.5c-2.2,1.6-4.1,3.5-5.5,5.6l-0.1,0.1
		c-2.1,3.3-3.4,7.4-3.9,12.2c-0.5,5.2,0.2,9.8,0.8,12.8c0.1,0.5-0.2,1.1-0.8,1.2c-0.5,0.1-1.1-0.2-1.2-0.8
		c-0.7-3.1-1.3-7.9-0.9-13.4c0.5-5.2,1.9-9.6,4.2-13.1c0,0,0-0.1,0.1-0.1c1.5-2.3,3.6-4.4,6-6.1c2.3-1.6,4.9-2.9,7.7-3.8
		c2.7-0.9,5.6-1.4,8.5-1.5c3.8-0.2,7.6,0.2,11,1c3.9,1,7.3,2.5,10.1,4.6c4.5,3.4,7.5,8.7,8.5,15.5c0.3,2.2,0.3,2.5,0.2,4.3
		c0,0.5-0.1,1.2-0.1,2c0.6,1.5,4.2,11.2,4.2,11.2c0.2,0.4,0,0.9-0.3,1.1l-3.8,3L100,58.6c0,0.4-0.3,4.3-3,6.1
		c-1.6,1.1-3.7,1.2-6.3,0.3c0,0,0,0-0.1,0l-5.2-2.3l-0.2,4.4C85.2,67.6,84.8,68,84.3,68z"/>
	<path class="st1" d="M59.7,67.3c-0.5,0-1-0.4-1-1V51.5l-5.8-3.1c-0.5-0.3-0.7-0.9-0.4-1.3c0.3-0.5,0.9-0.7,1.3-0.4l6.3,3.4
		c0.3,0.2,0.5,0.5,0.5,0.9v15.4C60.7,66.9,60.2,67.3,59.7,67.3z"/>
	<path class="st1" d="M84.6,62.2c-0.1,0-0.3,0-0.4-0.1l-11.7-5.8c-0.3-0.2-0.6-0.5-0.6-0.9v-9.5c0-0.5,0.4-1,1-1c0.5,0,1,0.4,1,1
		v8.9L85,60.3c0.5,0.2,0.7,0.8,0.4,1.3C85.3,62,85,62.2,84.6,62.2z"/>
	<path class="st1" d="M72.9,22.9c-0.5,0-1-0.4-1-1V3.2c0-0.5,0.4-1,1-1c0.5,0,1,0.4,1,1v18.7C73.9,22.5,73.4,22.9,72.9,22.9z"/>
	<g>
		<g>
			<polygon class="st0" points="90.1,55 80.8,55 76.9,44.1 78.8,43.4 82.2,53.1 90.1,53.1 			"/>
			<path class="st0" d="M92.8,57c-1.9,0-3.5-1.6-3.5-3.5c0-1.9,1.6-3.5,3.5-3.5c1.9,0,3.5,1.6,3.5,3.5C96.3,55.4,94.8,57,92.8,57z
				 M92.8,51.9c-0.8,0-1.5,0.7-1.5,1.5c0,0.8,0.7,1.5,1.5,1.5c0.8,0,1.5-0.7,1.5-1.5C94.4,52.6,93.7,51.9,92.8,51.9z"/>
		</g>
		<path class="st2" d="M70.1,47.2c-7.2,0-13.1-5.9-13.1-13.1c0-7.2,5.9-13.1,13.1-13.1c7.2,0,13.1,5.9,13.1,13.1
			C83.3,41.3,77.4,47.2,70.1,47.2z M70.1,22.9c-6.1,0-11.2,5-11.2,11.2c0,6.1,5,11.2,11.2,11.2c6.1,0,11.2-5,11.2-11.2
			C81.3,27.9,76.3,22.9,70.1,22.9z"/>
		<circle class="st0" cx="70.1" cy="34.1" r="7.7"/>
	</g>
	<path class="st3" d="M99.1,25.6"/>
	<path class="st4" d="M80.9,15.9c-2.2,0-4.1-1.8-4.1-4.1s1.8-4.1,4.1-4.1c2.2,0,4.1,1.8,4.1,4.1S83.2,15.9,80.9,15.9z M80.9,9.7
		c-1.1,0-2.1,0.9-2.1,2.1s0.9,2.1,2.1,2.1c1.1,0,2.1-0.9,2.1-2.1S82.1,9.7,80.9,9.7z"/>
	<path class="st4" d="M48.8,49c-2.2,0-4.1-1.8-4.1-4.1c0-2.2,1.8-4.1,4.1-4.1c2.2,0,4.1,1.8,4.1,4.1C52.8,47.2,51,49,48.8,49z
		 M48.8,42.8c-1.1,0-2.1,0.9-2.1,2.1c0,1.1,0.9,2.1,2.1,2.1c1.1,0,2.1-0.9,2.1-2.1C50.8,43.8,49.9,42.8,48.8,42.8z"/>
</g>
</svg>
