<?xml version="1.0" encoding="utf-8"?>
<!-- Generator: Adobe Illustrator 24.2.1, SVG Export Plug-In . SVG Version: 6.00 Build 0)  -->
<svg version="1.1" id="圖層_1" xmlns="http://www.w3.org/2000/svg" xmlns:xlink="http://www.w3.org/1999/xlink" x="0px" y="0px"
	 viewBox="0 0 150 70" style="enable-background:new 0 0 150 70;" xml:space="preserve">
<style type="text/css">
	.st0{fill:#676869;}
	.st1{fill:#DD5009;}
</style>
<g>
	<path class="st0" d="M21,41.3h-3.7c0.6-2.9,2.2-5.5,4.6-7.3c2-1.5,4.4-2.3,6.8-2.3c2.2-0.1,4.3,0.8,5.7,2.5s1.8,3.9,1.3,6
		c-0.4,1.6-1.1,3.1-2.1,4.4c-1,1.5-2.3,2.9-3.7,4l-10.7,8.7h10.5l-1.2,3.8H12.9l1.3-3.8l13.1-10.7c2.8-2.2,4.4-4.4,4.8-6.4
		c0.3-1.2,0-2.4-0.8-3.4c-0.8-0.9-2.1-1.5-3.3-1.4c-1.4,0-2.8,0.5-4,1.4C22.5,38,21.4,39.5,21,41.3z"/>
	<path class="st0" d="M56.5,31.7l-7.2,20.1h3.1l-1.3,3.6H48l-2.1,5.7h-3.7l2.1-5.8h-12l1.2-3.6l19.4-20H56.5z M38,51.8h7.7l4.5-12.5
		L38,51.8z"/>
	<path class="st0" d="M66.5,31.7h3.8l-5.1,14.8c1.1-1.1,2.3-2,3.6-2.8c1-0.6,2.1-0.9,3.2-0.9c1.4-0.1,2.7,0.5,3.6,1.6
		s1.2,2.6,0.8,3.9c-0.1,0.3-0.1,0.5-0.2,0.8l-4,12h-3.9l3.8-11.2l0.1-0.5c0.2-0.8,0.1-1.7-0.3-2.5c-0.4-0.7-1.1-1-1.9-1
		c-1.6,0.1-3,0.9-4,2.1c-1.4,1.4-2.5,3.1-3.1,5l-2.6,8.1h-3.8L66.5,31.7z"/>
	<path class="st0" d="M75.9,61.1l6.5-17.9h3.9L84.9,47c0.5-0.7,1.1-1.3,1.6-1.9c0.7-0.8,1.5-1.4,2.4-1.9c0.8-0.3,1.7-0.5,2.5-0.5
		c0.9,0,1.9,0.2,2.8,0.6L91.7,47c-0.8-0.4-1.6-0.6-2.5-0.6c-1.3,0-2.7,0.5-3.6,1.4c-1.2,1.4-2.2,3-2.7,4.8l-3.1,8.5
		C79.8,61.1,75.9,61.1,75.9,61.1z"/>
	<path class="st0" d="M90,58.2l2.6-2.7c0.5,0.8,1.2,1.4,1.9,2c0.7,0.4,1.4,0.7,2.2,0.7c0.7,0,1.3-0.2,1.9-0.5c0.5-0.3,0.9-0.7,1-1.2
		c0.2-0.8-0.5-1.6-1.8-2.5c-1.1-0.6-2.1-1.5-2.8-2.6c-0.5-1-0.6-2-0.3-3.1c0.4-1.6,1.3-2.9,2.6-3.9c1.3-1,2.9-1.6,4.5-1.6
		c1.9,0.1,3.7,1,5,2.3l-2.7,2.7c-0.9-0.9-2-1.4-3.2-1.6c-0.6,0-1.3,0.2-1.8,0.6c-0.5,0.4-0.9,0.9-1,1.5c-0.1,0.5,0,1,0.3,1.3
		c0.6,0.6,1.3,1.2,2,1.6c0.9,0.5,1.7,1.3,2.2,2.2s0.6,2,0.3,3c-0.3,1.5-1.2,2.9-2.5,3.8c-1.3,1-3,1.5-4.7,1.5
		c-1.1,0-2.3-0.3-3.2-0.8C91.6,60.1,90.7,59.2,90,58.2z"/>
	<polygon class="st1" points="109,40.1 96.7,27.8 98.3,26.2 109,37 123.8,22.3 125.4,23.8 	"/>
	<path class="st1" d="M109.8,62.3v-5.6c11.9,0,21.7-9.8,21.7-21.7s-9.7-21.7-21.7-21.7c-11.9,0-21.7,9.8-21.7,21.7h-5.6
		c0-15,12.2-27.3,27.3-27.3c15,0,27.3,12.2,27.3,27.3S124.9,62.3,109.8,62.3z"/>
</g>
</svg>
