<?xml version="1.0" encoding="utf-8"?>
<!-- Generator: Adobe Illustrator 24.2.1, SVG Export Plug-In . SVG Version: 6.00 Build 0)  -->
<svg version="1.1" id="圖層_1" xmlns="http://www.w3.org/2000/svg" xmlns:xlink="http://www.w3.org/1999/xlink" x="0px" y="0px"
	 viewBox="0 0 150 70" style="enable-background:new 0 0 150 70;" xml:space="preserve">
<style type="text/css">
	.st0{fill:#DD5009;}
	.st1{fill:#676869;}
</style>
<g id="_群組_">
	<g id="_群組_2">
		<g id="_群組_3">
			<path id="_路徑_" class="st0" d="M52.2,15.1v5.3H37.7V55h-8.4V20.3H14.8V15L52.2,15.1L52.2,15.1z"/>
		</g>
		<g id="_群組_4">
			<path id="_複合路徑_" class="st1" d="M136.1,25.1c-0.3-2.2-1.2-4.3-2.8-5.9c-1.5-1.5-3.5-2.6-5.6-3.1c-2.3-0.7-4.7-1-7-1
				c-3,0-6,0.5-8.9,1.2c-3,0.9-5.7,2.1-8.3,3.8c-2.7,1.7-5,3.8-7,6.2c-2.1,2.6-3.7,5.4-4.9,8.6c-1.1,2.8-1.6,5.7-1.5,8.7
				c0.1,2.2,1,4.4,2.3,6.1c1.4,1.7,3.2,3,5.3,3.6c2.5,0.9,5,1.2,7.7,1.2c3,0,6.1-0.5,9-1.3c3-0.9,5.7-2.2,8.3-3.9
				c2.7-1.7,5-3.9,7-6.4c2.1-2.7,3.7-5.6,4.9-8.8C136,30.6,136.5,27.6,136.1,25.1z M126.6,29.5c-0.4,1.8-1,3.6-1.6,5.4
				c-0.2,0.4-0.5,1.1-0.9,2.1c-0.5,1.1-1,2.2-1.6,3.3c-0.8,1.3-1.6,2.6-2.5,3.7c-1,1.3-2.1,2.5-3.4,3.5s-2.8,2-4.4,2.6
				c-1.7,0.7-3.6,1-5.4,1c-1.5,0.1-3.1-0.3-4.5-1c-1-0.6-1.9-1.3-2.5-2.4c-0.6-1-0.9-2.1-1-3.3c-0.1-1.2,0-2.5,0.2-3.6
				c0.2-1.1,0.5-2.3,0.8-3.4c0.4-1,0.7-1.9,0.9-2.6c0.2-0.7,0.6-1.5,1-2.7c0.5-1.1,1-2.4,1.7-3.4c0.8-1.3,1.5-2.6,2.5-3.7
				c1-1.2,2.1-2.4,3.4-3.4c1.3-1,2.8-1.8,4.4-2.5c1.7-0.7,3.6-1,5.4-1c2.6,0,4.4,0.6,5.5,1.6c1.1,1,1.9,2.5,2.1,4
				C127.2,26,127.1,27.8,126.6,29.5L126.6,29.5z"/>
			<path id="_路徑_2" class="st1" d="M83.9,15.2h-1.3c-3.4,0-6.8,0.5-10,1.3c-3.2,0.9-6.3,2.2-9,3.9s-5.2,3.8-7.3,6.3
				c-2.1,2.5-3.7,5.3-4.9,8.4c-1,2.7-1.5,5.5-1.2,8.4c0.2,2.3,1.1,4.4,2.7,6.1c1.6,1.7,3.7,3,6,3.7c2.8,0.9,5.7,1.3,8.6,1.2
				c2.8,0,5.6-0.3,8.3-0.9c2.5-0.6,4.9-1.2,7.1-2l5.1-14h-8l-4.6,12.6c-0.7,0.2-1.6,0.3-2.8,0.5C71.3,50.9,70,51,68.7,51
				c-1.6,0-3.2-0.3-4.7-0.9c-1.4-0.5-2.7-1.4-3.5-2.7c-1-1.5-1.4-3.2-1.4-5c0-2.6,0.6-5.1,1.5-7.5c1-2.6,2.2-5,3.8-7.2
				c1.4-2,3.1-3.7,5-5.1c1.8-1.3,3.9-2.4,6.1-3c2.1-0.7,4.4-1,6.6-1h7.1l1.2-3.4L83.9,15.2z"/>
		</g>
	</g>
</g>
</svg>
