<?xml version="1.0" encoding="utf-8"?>
<!-- Generator: Adobe Illustrator 24.2.1, SVG Export Plug-In . SVG Version: 6.00 Build 0)  -->
<svg version="1.1" id="圖層_1" xmlns="http://www.w3.org/2000/svg" xmlns:xlink="http://www.w3.org/1999/xlink" x="0px" y="0px"
	 viewBox="0 0 150 70" style="enable-background:new 0 0 150 70;" xml:space="preserve">
<style type="text/css">
	.st0{fill:#676869;}
	.st1{fill:#DD5009;}
</style>
<g>
	<path id="_路徑_" class="st0" d="M88.4,24.4L71.8,56.2l-0.6,1.2c-0.2,0.5-0.5,1-0.6,1.5c-0.3,1,0.1,1.4,1,1.4
		c2.8,0,6.3-3.3,10.7-9.9l2.2,1.9C78.7,61.2,72.2,65.6,65,65.6c-6.3,0-8.9-2.2-7.7-6.7c0.5-1.8,1.3-3.5,2.2-5.1l13.6-25.7h-6.2
		l1.6-3h6.9c2.2,0,4.6-0.1,7.2-0.4l3.4-0.4L88.4,24.4z"/>
	<path id="_路徑_2" class="st1" d="M78.3,12.9c0.6-2,1.8-3.8,3.5-5c1.6-1.3,3.6-2.1,5.7-2.1c1.7-0.1,3.4,0.7,4.4,2.1
		c1,1.4,1.3,3.3,0.8,5c-0.6,2-1.8,3.8-3.5,5.1c-1.6,1.3-3.5,2.1-5.6,2.1c-1.8,0.1-3.5-0.7-4.6-2.1C78,16.5,77.7,14.6,78.3,12.9z"/>
</g>
</svg>
